<?xml version="1.0" encoding="UTF-8" standalone="no"?>
<!-- Created with Inkscape (http://www.inkscape.org/) -->

<svg
   width="72.382004mm"
   height="39.241001mm"
   viewBox="0 0 72.382004 39.241001"
   version="1.1"
   id="svg39551"
   inkscape:version="1.1 (c68e22c387, 2021-05-23)"
   sodipodi:docname="04d.svg"
   xmlns:inkscape="http://www.inkscape.org/namespaces/inkscape"
   xmlns:sodipodi="http://sodipodi.sourceforge.net/DTD/sodipodi-0.dtd"
   xmlns="http://www.w3.org/2000/svg"
   xmlns:svg="http://www.w3.org/2000/svg">
  <sodipodi:namedview
     id="namedview39553"
     pagecolor="#ffffff"
     bordercolor="#666666"
     borderopacity="1.0"
     inkscape:pageshadow="2"
     inkscape:pageopacity="0.0"
     inkscape:pagecheckerboard="0"
     inkscape:document-units="mm"
     showgrid="false"
     width="72.382mm"
     inkscape:zoom="0.74118967"
     inkscape:cx="10.118867"
     inkscape:cy="453.32526"
     inkscape:window-width="1284"
     inkscape:window-height="1040"
     inkscape:window-x="594"
     inkscape:window-y="41"
     inkscape:window-maximized="0"
     inkscape:current-layer="layer1" />
  <defs
     id="defs39548" />
  <g
     inkscape:label="Layer 1"
     inkscape:groupmode="layer"
     id="layer1">
    <path
       id="path36"
       style="fill:#c2d9f2;fill-opacity:1;fill-rule:nonzero;stroke:none;stroke-width:0.0352778"
       d="m 66.700756,18.069234 c -0.02434,0 -0.04727,0.0071 -0.07161,0.0071 0.451203,-1.040694 0.703792,-2.19075 0.703792,-3.400778 0,-4.7413327 -3.843867,-8.5866112 -8.586259,-8.5866112 -1.675695,0 -3.23462,0.4868334 -4.556125,1.3193885 C 52.403028,3.0621113 48.131948,0 43.142611,0 c -6.598003,0 -11.94682,5.3481114 -11.94682,11.948584 0,0.497416 0.04022,0.98425 0.09948,1.467555 -0.03351,0 -0.06597,-0.0035 -0.09948,-0.0035 -4.423834,0 -8.010173,3.584222 -8.010173,8.008056 0,4.423833 3.586339,8.011584 8.010173,8.011584 H 66.70076 c 3.137606,0 5.680781,-2.543528 5.680781,-5.679723 0,-3.139722 -2.543175,-5.68325 -5.680781,-5.68325" />
    <path
       id="path38"
       style="fill:#61c9e7;fill-opacity:1;fill-rule:nonzero;stroke:none;stroke-width:0.0352778"
       d="m 52.466172,25.544595 c -0.02963,0 -0.0568,0.0071 -0.08643,0.0071 0.543983,-1.259417 0.849136,-2.645834 0.849136,-4.102806 0,-5.718528 -4.635147,-10.350501 -10.352617,-10.350501 -2.020711,0 -3.899959,0.585611 -5.493456,1.5875 -2.155472,-5.2387497 -7.304617,-8.9323332 -13.32089,-8.9323332 -7.955139,0 -14.4042699,6.4523052 -14.4042699,14.4074452 0,0.599722 0.048683,1.188861 0.1202972,1.770944 -0.040569,0 -0.079728,-0.0071 -0.1202972,-0.0071 C 4.3239975,19.924844 0,24.2499 0,29.583547 c 0,5.333648 4.3239975,9.657645 9.6576451,9.657645 H 52.466173 c 3.782836,0 6.849533,-3.066344 6.849533,-6.849181 0,-3.782483 -3.066697,-6.847417 -6.849533,-6.847417" />
  </g>
</svg>
