<?xml version="1.0" encoding="UTF-8" standalone="no"?>
<!-- Created with Inkscape (http://www.inkscape.org/) -->

<svg
   width="54.159mm"
   height="54.158001mm"
   viewBox="0 0 54.159 54.158001"
   version="1.1"
   id="svg40193"
   inkscape:version="1.1 (c68e22c387, 2021-05-23)"
   sodipodi:docname="1.svg"
   xmlns:inkscape="http://www.inkscape.org/namespaces/inkscape"
   xmlns:sodipodi="http://sodipodi.sourceforge.net/DTD/sodipodi-0.dtd"
   xmlns="http://www.w3.org/2000/svg"
   xmlns:svg="http://www.w3.org/2000/svg">
  <sodipodi:namedview
     id="namedview40195"
     pagecolor="#ffffff"
     bordercolor="#666666"
     borderopacity="1.0"
     inkscape:pageshadow="2"
     inkscape:pageopacity="0.0"
     inkscape:pagecheckerboard="0"
     inkscape:document-units="mm"
     showgrid="false"
     width="54.159mm"
     inkscape:zoom="0.74118967"
     inkscape:cx="10.118867"
     inkscape:cy="238.13068"
     inkscape:window-width="1920"
     inkscape:window-height="1017"
     inkscape:window-x="-8"
     inkscape:window-y="-8"
     inkscape:window-maximized="1"
     inkscape:current-layer="layer1" />
  <defs
     id="defs40190" />
  <g
     inkscape:label="Layer 1"
     inkscape:groupmode="layer"
     id="layer1">
    <path
       id="path122"
       style="fill:#c2d9f2;fill-opacity:1;fill-rule:nonzero;stroke:none;stroke-width:0.0352778"
       d="m 27.85851,54.157742 h -1.558572 c -0.892528,0 -1.616428,-0.723195 -1.616428,-1.615722 V 1.6164278 C 24.68351,0.7239 25.40741,0 26.299938,0 h 1.558572 c 0.892881,0 1.616428,0.7239 1.616428,1.6164278 V 52.54202 c 0,0.892527 -0.723547,1.615722 -1.616428,1.615722" />
    <path
       id="path124"
       style="fill:#c2d9f2;fill-opacity:1;fill-rule:nonzero;stroke:none;stroke-width:0.0352778"
       d="m 36.499803,3.9352363 c 0.631119,0.6311195 0.631472,1.6545279 3.52e-4,2.2860002 L 27.12191,15.60442 27.08557,15.56173 27.04253,15.60442 17.660052,6.221942 c -0.631472,-0.631825 -0.63112,-1.655939 0.0011,-2.2870585 l 1.102431,-1.1003139 c 0.631472,-0.6304139 1.654528,-0.6300612 2.285295,0.00106 l 4.893028,4.8926753 c 0.631472,0.6314723 1.655233,0.6314723 2.286705,-3.528e-4 l 4.886326,-4.8905586 c 0.631119,-0.631825 1.655233,-0.631825 2.286705,-3.528e-4 L 36.49984,3.935238" />
    <path
       id="path126"
       style="fill:#c2d9f2;fill-opacity:1;fill-rule:nonzero;stroke:none;stroke-width:0.0352778"
       d="m 17.658646,50.224269 c -0.63112,-0.631472 -0.63112,-1.654527 -3.53e-4,-2.286 l 9.378245,-9.383889 0.03669,0.04233 0.04269,-0.04233 9.382478,9.380361 c 0.631826,0.635001 0.631473,1.658056 -0.0011,2.289528 l -1.10243,1.100667 c -0.631473,0.627945 -1.654176,0.627945 -2.284942,-0.0035 l -4.893028,-4.8895 c -0.631473,-0.631472 -1.655587,-0.631472 -2.286706,0 l -4.886325,4.8895 c -0.63112,0.631473 -1.655234,0.631473 -2.286706,0 l -1.09855,-1.097139" />
    <path
       id="path128"
       style="fill:#c2d9f2;fill-opacity:1;fill-rule:nonzero;stroke:none;stroke-width:0.0352778"
       d="M 0,27.858157 V 26.298879 C 0,25.406351 0.7235473,24.683157 1.6167806,24.683157 H 52.54202 c 0.892881,0 1.616781,0.723194 1.616781,1.615722 v 1.559278 c 0,0.892528 -0.7239,1.615722 -1.616781,1.615722 H 1.6167806 C 0.7235473,29.473879 0,28.750685 0,27.858157" />
    <path
       id="path130"
       style="fill:#c2d9f2;fill-opacity:1;fill-rule:nonzero;stroke:none;stroke-width:0.0352778"
       d="m 50.223212,36.501213 c -0.63112,0.627944 -1.654175,0.631472 -2.286,0 l -9.383184,-9.380362 0.04269,-0.03528 -0.04269,-0.04233 9.382478,-9.383184 c 0.631825,-0.631825 1.655939,-0.631472 2.287059,0.0011 l 1.100666,1.10243 c 0.630414,0.631472 0.629709,1.654528 -0.0011,2.286 l -4.893028,4.893028 c -0.631472,0.631473 -0.631472,1.654528 3.53e-4,2.286001 l 4.890558,4.885972 c 0.631825,0.631472 0.632178,1.654528 7.06e-4,2.286 l -1.09855,1.100667" />
    <path
       id="path132"
       style="fill:#c2d9f2;fill-opacity:1;fill-rule:nonzero;stroke:none;stroke-width:0.0352778"
       d="m 3.9352363,17.658645 c 0.6311194,-0.631119 1.6545284,-0.631472 2.2860004,-3.53e-4 l 9.3835363,9.377893 -0.04269,0.03528 0.04269,0.04586 -9.3824783,9.380362 c -0.631825,0.631472 -1.656292,0.631472 -2.2874111,0 L 2.8345696,35.393491 C 2.2041557,34.762018 2.2045085,33.738963 2.8356279,33.111018 L 7.7283037,28.21799 c 0.631472,-0.631472 0.631472,-1.658055 -3.53e-4,-2.289528 L 2.8373918,21.04249 c -0.631825,-0.631472 -0.631825,-1.654528 -3.527e-4,-2.285295 l 1.0981972,-1.09855" />
    <path
       id="path134"
       style="fill:#c2d9f2;fill-opacity:1;fill-rule:nonzero;stroke:none;stroke-width:0.0352778"
       d="m 14.145685,40.01488 -0.0025,-0.0035 c -0.631472,-0.631472 -0.631472,-1.654528 0,-2.286 L 37.726764,14.143215 c 0.631472,-0.631472 1.65488,-0.631472 2.286353,0 l 0.0025,0.0021 c 0.63112,0.631471 0.63112,1.655232 0,2.286352 L 16.431685,40.01488 c -0.63112,0.631472 -1.654881,0.631472 -2.286,0" />
    <path
       id="path136"
       style="fill:#c2d9f2;fill-opacity:1;fill-rule:nonzero;stroke:none;stroke-width:0.0352778"
       d="m 42.634256,19.998267 c 0,0.892528 -0.723548,1.619251 -1.616075,1.619251 h -8.437387 l 0.0032,-0.03528 h -0.04092 v -8.439854 c 0,-0.893586 0.724605,-1.617486 1.617839,-1.616781 h 0.0032 c 0.892175,0.0011 1.615369,0.724253 1.615369,1.616781 v 3.625497 c 0,0.892881 0.7239,1.616781 1.617134,1.616428 l 3.620558,-0.0014 c 0.893234,-3.53e-4 1.617134,0.723547 1.617134,1.615369 v 0" />
    <path
       id="path138"
       style="fill:#c2d9f2;fill-opacity:1;fill-rule:nonzero;stroke:none;stroke-width:0.0352778"
       d="m 11.524193,34.158768 c 0,-0.892527 0.723547,-1.615722 1.616075,-1.615722 l 8.437386,-0.0035 -0.0028,0.03881 h 0.04092 v 8.438445 c 0,0.892528 -0.724958,1.615722 -1.618191,1.615722 h -0.0032 c -0.892175,0 -1.615017,-0.723194 -1.615017,-1.615722 v -3.626556 c 0,-0.892528 -0.724253,-1.615722 -1.617486,-1.615722 h -3.620206 c -0.893233,0 -1.617486,-0.723195 -1.617486,-1.615723 v 0" />
    <path
       id="path140"
       style="fill:#c2d9f2;fill-opacity:1;fill-rule:nonzero;stroke:none;stroke-width:0.0352778"
       d="m 14.143215,14.145331 0.0025,-0.0021 c 0.631119,-0.631472 1.65488,-0.631472 2.286,0 l 23.583871,23.582141 c 0.63112,0.631472 0.63112,1.654528 0,2.286 l -0.0025,0.0035 c -0.631473,0.631472 -1.654881,0.631472 -2.286353,0 L 14.143215,16.431684 c -0.631472,-0.63112 -0.631472,-1.654881 0,-2.286353" />
    <path
       id="path142"
       style="fill:#c2d9f2;fill-opacity:1;fill-rule:nonzero;stroke:none;stroke-width:0.0352778"
       d="m 34.159122,42.636019 c -0.892528,0 -1.616428,-0.726722 -1.616781,-1.61925 l -0.0025,-8.434917 0.0381,0.0035 v -0.04233 h 8.438445 c 0.893233,0 1.617486,0.723195 1.616428,1.61925 v 0 c -7.06e-4,0.892528 -0.724253,1.615722 -1.616428,1.615722 h -3.62585 c -0.892881,0 -1.616781,0.726723 -1.616428,1.619251 l 0.0014,3.6195 c 3.53e-4,0.892528 -0.723195,1.61925 -1.616428,1.61925 v 0" />
    <path
       id="path144"
       style="fill:#c2d9f2;fill-opacity:1;fill-rule:nonzero;stroke:none;stroke-width:0.0352778"
       d="m 19.999679,11.524192 c 0.892528,0 1.616428,0.723548 1.616428,1.616076 l 0.0025,8.438444 -0.03775,-0.0035 v 0.03881 h -8.438473 c -0.893586,0 -1.617486,-0.723195 -1.61678,-1.615723 v -0.0035 c 0.0011,-0.892528 0.724253,-1.615723 1.61678,-1.615723 h 3.625498 c 0.893233,0 1.616781,-0.7239 1.616781,-1.617133 l -0.0018,-3.620205 c -3.17e-4,-0.893293 0.723583,-1.617546 1.616816,-1.617546 v 0" />
  </g>
</svg>
